<?xml version="1.0" encoding="utf-8"?>
<!-- Generator: Adobe Illustrator 21.1.0, SVG Export Plug-In . SVG Version: 6.00 Build 0)  -->
<svg version="1.1" id="Layer_1" xmlns="http://www.w3.org/2000/svg" xmlns:xlink="http://www.w3.org/1999/xlink" x="0px" y="0px"
	 viewBox="0 0 73.4 80.4" style="enable-background:new 0 0 73.4 80.4;" xml:space="preserve">
<style type="text/css">
	.st0{fill:#222222;}
	.st1{enable-background:new    ;}
</style>
<title>55</title>
<g>
	<path class="st0" d="M13.5,80.4h40.2c7.5,0,13.5-6,13.5-13.5V36.7c0-1.9-1.6-3.5-3.5-3.5s-3.5,1.6-3.5,3.5v30.2
		c0,3.6-2.9,6.5-6.5,6.5l0,0H13.5c-3.6,0-6.5-2.9-6.5-6.5l0,0V17.7c0-3.6,2.9-6.5,6.5-6.5h24.2c1.9,0,3.5-1.6,3.5-3.5
		s-1.6-3.5-3.5-3.5H13.5C6,4.2,0,10.3,0,17.7v49.2C0,74.4,6,80.4,13.5,80.4z"/>
	<path class="st0" d="M70.5,2.9C66.6-1,60.2-1,56.3,2.9l-28,28c-0.4,0.4-0.6,0.8-0.8,1.3l-4.9,14.2c-0.6,1.8,0.4,3.8,2.2,4.4
		c0.3,0.1,0.7,0.2,1.1,0.2l1.1-0.2L41.1,46c0.5-0.2,0.9-0.4,1.3-0.8l28-28C74.4,13.3,74.4,6.9,70.5,2.9L70.5,2.9z M65.5,12.2
		L38.1,39.6l-6.6,2.3l2.3-6.6L61.2,7.9c1.2-1.2,3.1-1.2,4.3,0S66.7,11,65.5,12.2z"/>
</g>
<text transform="matrix(1 0 0 1 -13.3 105.2167)" style="font-family:'HelveticaNeue-Bold'; font-size:5px;">Created by Ramesha</text>
<text transform="matrix(1 0 0 1 -13.3 110.2167)" style="font-family:'HelveticaNeue-Bold'; font-size:5px;">from the Noun Project</text>
</svg>
