<?xml version="1.0" encoding="utf-8"?>
<!-- Generator: Adobe Illustrator 21.1.0, SVG Export Plug-In . SVG Version: 6.00 Build 0)  -->
<svg version="1.1" id="Layer_1" xmlns="http://www.w3.org/2000/svg" xmlns:xlink="http://www.w3.org/1999/xlink" x="0px" y="0px"
	 viewBox="0 0 93 76" style="enable-background:new 0 0 93 76;" xml:space="preserve">
<style type="text/css">
	.st0{fill:#222222;}
	.st1{enable-background:new    ;}
</style>
<title>55</title>
<g>
	<path class="st0" d="M80,0H13C5.8,0,0,5.8,0,13v50c0,7.2,5.8,13,13,13h67c7.2,0,13-5.8,13-13V13C93,5.8,87.2,0,80,0z M87,63
		c0,3.9-3.1,7-7,7H13c-3.9,0-7-3.1-7-7V28h81V63z M87,22H6v-9c0-3.9,3.1-7,7-7h67c3.9,0,7,3.1,7,7V22z"/>
	<circle class="st0" cx="28" cy="14" r="5"/>
	<circle class="st0" cx="41" cy="14" r="5"/>
	<circle class="st0" cx="15" cy="14" r="5"/>
	<polygon class="st0" points="45.9,56.2 53.4,65.1 59.5,60 52,51.1 62.4,47.4 30.6,31.5 40.4,65.6 	"/>
</g>
<text transform="matrix(1 0 0 1 -3.5 103)" style="font-family:'HelveticaNeue-Bold'; font-size:5px;">Created by Ramesha</text>
<text transform="matrix(1 0 0 1 -3.5 108)" style="font-family:'HelveticaNeue-Bold'; font-size:5px;">from the Noun Project</text>
</svg>
